<svg xmlns="http://www.w3.org/2000/svg" xmlns:xlink="http://www.w3.org/1999/xlink" viewBox="0 0 70.45 70.45"><defs><style>.cls-1{fill:#3d6cb0}.cls-2{fill:#fff}.cls-3,.cls-5{opacity:.55}.cls-3{fill:url(#linear-gradient)}.cls-4{fill:none}.cls-5{fill:url(#linear-gradient-2)}</style><linearGradient id="linear-gradient" x1="19.67" y1="21.18" x2="59.37" y2="60.88" gradientUnits="userSpaceOnUse"><stop offset="0" stop-color="#5b5b5d"/><stop offset=".17" stop-color="#5b5b5d" stop-opacity=".9"/><stop offset=".45" stop-color="#5b5b5d" stop-opacity=".64"/><stop offset=".8" stop-color="#5b5b5d" stop-opacity=".21"/><stop offset=".96" stop-color="#5b5b5d" stop-opacity="0"/></linearGradient><linearGradient id="linear-gradient-2" x1="13.36" y1="27.24" x2="53.5" y2="67.39" xlink:href="#linear-gradient"/></defs><title>Recurso 1</title><g id="Capa_2" data-name="Capa 2"><g id="Contenido_Página_Web_a_Bordo" data-name="Contenido Página Web a Bordo"><path class="cls-1" d="M35.22 0a35.22 35.22 0 1 0 35.23 35.22A35.22 35.22 0 0 0 35.22 0z"/><path class="cls-2" d="M40.8 49.53l1.91 6 .82-.86s1.32-.87.43-5.43c-.76-3.93-2.91-16-3.67-20.27l6.16-6.16c3.27-3.27 1.73-4.61 1.73-4.61s-1.34-1.54-4.61 1.73l-6.13 6.13c-4.22-.75-16.39-2.91-20.34-3.68-4.56-.89-5.43.43-5.43.43l-.86.82 6 1.92c6.26 2 10 7.36 11.44 9.69l-7.93 7.93L13 42.2c-1.3-.2-3.08 1.95-3.08 1.95l8 4.32 4.32 8s2.12-1.78 1.95-3.09l-1-7.32 7.94-7.94c2.39 1.42 7.69 5.18 9.67 11.41z"/><path class="cls-3" d="M70 40.37l-.1-.1-.1-.1-.1-.1-.1-.1-.1-.1-.1-.1-.1-.1-.1-.1-.1-.1-.1-.1-.1-.1-.1-.1-.1-.1-.1-.1-.1-.1-.1-.1-.1-.1-.1-.1-.1-.1-.1-.1-.1-.1-.1-.1-.1-.1-.1-.1-.1-.1-.1-.1-.1-.1-.1-.1-.1-.1-.1-.1-.1-.1-.1-.1-.1-.1-.1-.1-.1-.1-.1-.1-.1-.1-.1-.1-.1-.1-.1-.1-.1-.1-.1-.1-.1-.1-.1-.1-.1-.1-.1-.1-.1-.1-.1-.1-.1-.1-.1-.11-.1-.1-.1-.1-.1-.1-.1-.1-.1-.1-.1-.1-.1-.1-.1-.1-.2-.16-.1-.1-.1-.1-.1-.1-.1-.1-.1-.1-.1-.1-.1-.1-.1-.1-.1-.1-.1-.1-.1-.1-.1-.1-.1-.11-.1-.1-.1-.1-.1-.1-.1-.1-.1-.1-.1-.1-.1-.1-.1-.1-.1-.1-.1-.1-.1-.11-.1-.1-.1-.1-.1-.1-.1-.1-.1-.1-.1-.1-.1-.1-.1-.1-.1-.1-.1-.1-.1-.1-.1-.1-.1-.1-.1-.1-.1-.1-.1-.11-.1-.1-.1-.1-.1-.1-.1-.1-.1-.1-.1-.1-.1-.1-.1-.1-.1-.1-.1-.1-.1-.1-.1-.1-.1-.1-.1-.1-.11-.11-.1-.1-.1-.1-.1-.1-.1-.1-.1-.1-.1-.11-.1-.1-.1-.1-.1-.1-.1-.1-.1-.1-.1-.1-.1-.1-.1-.1-.1-.1-.1-.1-.1-.1-.19-.15-.1-.1-.1-.1-.1-.1-.1-.1-.1-.1-.1-.1-.1-.1-.1-.1-.1-.1-.11-.1-.1-.1-.1-.1-.1-.1-.1-.1-.1-.1-.1-.1-.1-.1-.1-.1-.1-.1-.1-.1-.1-.1-.1-.1-.1-.1-.1-.1-.1-.1-.09-.12-.1-.1-.1-.11-.1-.1-.1-.1-.1-.1-.1-.1-.1-.1-.1-.1-.1-.11-.1-.1-.1-.1-.1-.1-.1-.1-.1-.1-.1-.1-.1-.1-.1-.1-.1-.11-.1-.1-.1-.1-.1-.1-.1-.1-.1-.1-.1-.1-.1-.1-.1-.1-.1-.1-.1-.1-.1-.1-.1-.1-.1-.1-.1-.1-.1-.1-.1-.1-.1-.1-.11-.11-.1-.1-.1-.1-.1-.1-.1-.1-.1-.1-.1-.1-.1-.1-.11-.1-.1-.1-.1-.1-.1-.1-.1-.1-.1-.1-.1-.1-.11-.1-.1-.1-.1-.1-.08-.08c.1.71-.17 2-2.07 3.86L40.3 29c.76 4.29 2.9 16.34 3.67 20.27.89 4.56-.43 5.43-.43 5.43l-.82.86-1.91-6c-2-6.22-7.28-10-9.64-11.41l-7.94 7.94 1 7.32a3.4 3.4 0 0 1-1.13 2.28l.09.09.1.1.1.1.1.1.1.1.1.1.11.1.1.1.1.1.1.1.1.1.1.1.1.1.1.1.1.1.1.1.1.1.1.1.1.1.1.1.1.1.1.1.1.1.1.1.1.1.1.1.1.11.1.1.1.1.1.1.1.1.1.1.1.1.1.1.1.1.1.1.1.1.1.1.1.1.1.1.1.1.1.1.1.1.1.1.1.1.1.1.1.1.1.1.1.1.1.1.1.1.1.1.1.1.1.1.1.1.1.1.1.1.1.1.1.1.1.1.1.1.1.1.1.1.1.1.1.1.1.1.1.1.1.1.1.1.1.1.1.1.1.1.1.1.1.1.1.11.1.1.1.1.1.1.1.1.1.1.1.1.1.1.1.1.11.1.1.1.1.1.1.1.1.1.1.1.1.1.1.1.1.1.1.1.1.1.1.1.1.1.1.1.1.1.1.1.1.1.1.1.1.1.1.1.1.1.1.1.1.1.1.1.1.1.1.1.1.1.1.1.1.1.1.1.1.1.1.1.1.1.1.1.1.1.1.1.1.1.1.1.1.1.1.1.11.1.1.1.1.1.1.1.1.1.1.1.1.1.1.1.1.1.1.1.1.1.1.1.1.1.1.1.1.11.1.1.1.1.1.11.1.1.1.1.1.1.1.1a35.24 35.24 0 0 0 32.44-29.75z"/><path class="cls-4" d="M21.35 42.16V42l-1.12 1.12h.11z"/><path class="cls-5" d="M28.26 35.24v-.08L21.35 42v.12z"/><path class="cls-2" d="M48.41 18.82l.1.1a1.3 1.3 0 0 0-.34-.75 1.54 1.54 0 0 0-1.44-.32 2.87 2.87 0 0 1 1.56.84zM22.95 55.54l-.1-.1-.1-.1-.11-.1-.1-.1-.11-.1-.1-.1-.1-.1a2.85 2.85 0 0 1-.89-2.07V42.16l-1 1h-.11L16 47.42l1.95 1.05 4.32 8a10.24 10.24 0 0 0 .82-.81z"/><path class="cls-2" d="M23.22 46.05l7.94-7.94c2.36 1.42 7.66 5.19 9.64 11.41l1.91 6 .82-.86s1.32-.87.43-5.43c-.76-3.93-2.91-16-3.67-20.27l6.16-6.16c1.9-1.9 2.17-3.15 2.07-3.86l-.1-.1-.1-.1a2.87 2.87 0 0 0-1.56-.84 6.55 6.55 0 0 0-3.17 2l-6.13 6.13h-.11l-9.13 9.13v.08l-6.92 6.92v10.61a2.85 2.85 0 0 0 .89 2.07l.1.1.1.1.11.1.1.1.11.1.1.1.1.1.1.1a3.4 3.4 0 0 0 1.13-2.28z"/></g></g></svg>