<svg xmlns="http://www.w3.org/2000/svg" viewBox="0 0 70.45 70.45"><defs><style>.cls-1{fill:#3d6cb0}.cls-2{opacity:.55;fill:url(#linear-gradient)}.cls-3{fill:#fff}</style><linearGradient id="linear-gradient" x1="16.12" y1="41.66" x2="69.93" y2="41.66" gradientUnits="userSpaceOnUse"><stop offset="0" stop-color="#5b5b5d"/><stop offset=".17" stop-color="#5b5b5d" stop-opacity=".9"/><stop offset=".45" stop-color="#5b5b5d" stop-opacity=".64"/><stop offset=".8" stop-color="#5b5b5d" stop-opacity=".21"/><stop offset=".96" stop-color="#5b5b5d" stop-opacity="0"/></linearGradient></defs><title>Recurso 2</title><g id="Capa_2" data-name="Capa 2"><g id="Contenido_Página_Web_a_Bordo" data-name="Contenido Página Web a Bordo"><path class="cls-1" d="M35.22 0a35.22 35.22 0 1 0 35.23 35.22A35.22 35.22 0 0 0 35.22 0z"/><path class="cls-2" d="M69.93 41.2L42 13.09l-4.55 4.17-4.5 4.5v1.5l-2.46 3.29-5.91 2-3.63 3-1-1h-3.83l15.54 14.39 1.15 6.47-4.16 4.16-1.17 3.12L39 70.24A35.24 35.24 0 0 0 69.93 41.2z"/><path class="cls-3" d="M37 34.26l1.29 4.05.56-.58s.89-.58.29-3.67c-.52-2.65-2-10.8-2.48-13.7l4.16-4.16C43 14 42 13.09 42 13.09s-.91-1-3.12 1.17l-4.16 4.14c-2.85-.51-11.08-2-13.74-2.49-3.08-.6-3.67.29-3.67.29l-.58.56 4.05 1.29c4.23 1.35 6.79 5 7.73 6.55L23.15 30l-4.94-.65c-.89-.12-2.09 1.31-2.09 1.31l5.4 2.92 2.92 5.4s1.43-1.2 1.31-2.09l-.66-4.95 5.37-5.37c1.6.94 5.18 3.48 6.54 7.69z"/><path class="cls-3" d="M32.48 37.52l-1.29-4.05-.56.58s-.89.58-.29 3.67c.52 2.65 2 10.8 2.48 13.7l-4.16 4.16c-2.21 2.21-1.17 3.12-1.17 3.12s.91 1 3.12-1.17l4.14-4.14c2.85.51 11.08 2 13.74 2.49 3.08.6 3.67-.29 3.67-.29l.58-.56-4.05-1.29c-4.24-1.35-6.79-5-7.73-6.55l5.36-5.36 4.95.66c.88.12 2.09-1.32 2.09-1.32l-5.4-2.92L45 32.83s-1.43 1.2-1.32 2.09l.65 4.95L39 45.23c-1.6-.96-5.18-3.51-6.52-7.71z"/></g></g></svg>