<svg xmlns="http://www.w3.org/2000/svg" width="24" height="24" viewBox="0 0 24 24">
  <defs>
    <style>
      .cls-1 {
        fill: #fff;
        fill-rule: evenodd;
      }
    </style>
  </defs>
  <path class="cls-1" d="M11.845,0A11.845,11.845,0,1,1,0,11.845,11.845,11.845,0,0,1,11.845,0Zm0,0.74A11.121,11.121,0,1,1,.708,11.861,11.129,11.129,0,0,1,11.845.74Zm0.492,11.375,5.049,5.049a0.51,0.51,0,0,1-.721.721l-5.049-5.049L6.567,17.886a0.51,0.51,0,0,1-.721-0.721l5.049-5.049L5.846,7.067a0.51,0.51,0,0,1,.721-0.721l5.049,5.049,5.049-5.049a0.51,0.51,0,0,1,.721.721Z"/>
</svg>
